<?xml version="1.0" encoding="UTF-8"?>
<!DOCTYPE svg PUBLIC "-//W3C//DTD SVG 1.1//EN" "http://www.w3.org/Graphics/SVG/1.1/DTD/svg11.dtd">
<!-- Creator: CorelDRAW 2020 (64-Bit) -->
<svg xmlns="http://www.w3.org/2000/svg" xml:space="preserve" width="510px" height="474px" version="1.1" style="shape-rendering:geometricPrecision; text-rendering:geometricPrecision; image-rendering:optimizeQuality; fill-rule:evenodd; clip-rule:evenodd"
viewBox="0 0 509.999 473.425"
 xmlns:xlink="http://www.w3.org/1999/xlink"
 xmlns:xodm="http://www.corel.com/coreldraw/odm/2003">
 <defs>
  <style type="text/css">
   <![CDATA[
    .fil0 {fill:none}
    .fil1 {fill:white}
   ]]>
  </style>
 </defs>
 <g id="Слой_x0020_1">
  <metadata id="CorelCorpID_0Corel-Layer"/>
  <g id="_2045829185776">
   <rect class="fil0" width="509.999" height="473.424"/>
   <path class="fil1" d="M10.001 371.998c5.526,0 10.003,4.478 10.003,10.001 0,5.524 -4.477,10.004 -10.003,10.004 -5.523,0 -10.001,-4.479 -10.001,-10.004 0,-5.523 4.478,-10.001 10.001,-10.001zm74.966 -371.997l340.066 0c16.504,0 30.006,13.501 30.006,30.005l0 9.147 17.478 0 0 0.002c5.523,0 10.003,4.478 10.003,10.001 0,5.524 -4.479,10.002 -10.003,10.002l0 0 -6.122 0 -11.357 0 -10.001 0c-5.524,0 -10.001,4.479 -10.001,10.001 0,5.524 4.477,10.003 10.001,10.003l0 0 20.039 0c5.506,0.019 9.965,4.491 9.965,10.002 0,5.523 -4.478,10.001 -10.001,10.001l0 0 -10.002 0 0 344.254c0,16.503 -13.501,30.006 -30.005,30.006l-340.067 0c-16.502,0 -30.006,-13.503 -30.006,-30.006l0 -11.409 -10.001 0 0 -0.002c-5.523,0 -10.001,-4.477 -10.001,-10.001 0,-5.511 4.458,-9.98 9.965,-10.001l20.041 0 0 0c5.522,0 10.001,-4.478 10.001,-10.001 0,-5.524 -4.479,-10.002 -10.001,-10.002l-10.004 0 -11.356 0 -6.122 0 0 -0.002c-5.524,0 -10.001,-4.477 -10.001,-10.001 0,-5.524 4.477,-10.001 10.001,-10.001l0 0 17.478 0 0 -341.993c0,-16.504 13.503,-30.005 30.006,-30.005l0.001 0z"/>
  </g>
 </g>
</svg>
